<?xml version="1.0" encoding="UTF-8" standalone="no"?>
<!-- Created with Inkscape (http://www.inkscape.org/) -->

<svg
   xmlns:dc="http://purl.org/dc/elements/1.1/"
   xmlns:cc="http://creativecommons.org/ns#"
   xmlns:rdf="http://www.w3.org/1999/02/22-rdf-syntax-ns#"
   xmlns:svg="http://www.w3.org/2000/svg"
   xmlns="http://www.w3.org/2000/svg"
   xmlns:sodipodi="http://sodipodi.sourceforge.net/DTD/sodipodi-0.dtd"
   xmlns:inkscape="http://www.inkscape.org/namespaces/inkscape"
   width="744.09448819"
   height="1052.3622047"
   id="svg2"
   version="1.1"
   inkscape:version="0.48.4 r9939"
   sodipodi:docname="New document 1">
  <defs
     id="defs4" />
  <sodipodi:namedview
     id="base"
     pagecolor="#ffffff"
     bordercolor="#666666"
     borderopacity="1.0"
     inkscape:pageopacity="0.0"
     inkscape:pageshadow="2"
     inkscape:zoom="0.39890046"
     inkscape:cx="390.07814"
     inkscape:cy="553.4954"
     inkscape:document-units="px"
     inkscape:current-layer="layer1"
     showgrid="false"
     inkscape:window-width="1366"
     inkscape:window-height="706"
     inkscape:window-x="-8"
     inkscape:window-y="-8"
     inkscape:window-maximized="1" />
  <metadata
     id="metadata7">
    <rdf:RDF>
      <cc:Work
         rdf:about="">
        <dc:format>image/svg+xml</dc:format>
        <dc:type
           rdf:resource="http://purl.org/dc/dcmitype/StillImage" />
        <dc:title></dc:title>
      </cc:Work>
    </rdf:RDF>
  </metadata>
  <g
     inkscape:label="Layer 1"
     inkscape:groupmode="layer"
     id="layer1">
    <path
       sodipodi:type="arc"
       style="fill:none;stroke:#000000;stroke-width:25.79999924;stroke-linecap:butt;stroke-linejoin:miter;stroke-miterlimit:4;stroke-opacity:1;stroke-dasharray:none;marker-start:none;marker-mid:none"
       id="path2985"
       sodipodi:cx="111.42857"
       sodipodi:cy="289.50504"
       sodipodi:rx="165.71428"
       sodipodi:ry="171.42857"
       d="m 277.14285,289.50504 a 165.71428,171.42857 0 1 1 -331.428556,0 165.71428,171.42857 0 1 1 331.428556,0 z"
       transform="matrix(0.63456393,0,0,0.63456393,124.01934,381.72732)" />
    <path
       sodipodi:type="arc"
       style="fill:none;stroke:#000000;stroke-width:25.79999924;stroke-linecap:butt;stroke-linejoin:miter;stroke-miterlimit:4;stroke-opacity:1;stroke-dasharray:none;marker-start:none;marker-mid:none"
       id="path2985-1"
       sodipodi:cx="111.42857"
       sodipodi:cy="289.50504"
       sodipodi:rx="165.71428"
       sodipodi:ry="171.42857"
       d="m 277.14285,289.50504 a 165.71428,171.42857 0 1 1 -331.428556,0 165.71428,171.42857 0 1 1 331.428556,0 z"
       transform="matrix(0.63456393,0,0,0.63456393,533.39549,381.17682)" />
    <path
       sodipodi:type="arc"
       style="fill:#000000;fill-opacity:1;stroke-width:25.79999924;stroke-miterlimit:4;stroke-dasharray:none"
       id="path4149"
       sodipodi:cx="192.33141"
       sodipodi:cy="460.74368"
       sodipodi:rx="26.589596"
       sodipodi:ry="85.529861"
       d="m 218.921,460.74368 a 26.589596,85.529861 0 1 1 -53.17919,0 26.589596,85.529861 0 1 1 53.17919,0 z"
       transform="matrix(0.58333326,0,0,0.18134712,81.694933,482.20649)" />
    <path
       sodipodi:type="arc"
       style="fill:#000000;fill-opacity:1;stroke-width:25.79999924;stroke-miterlimit:4;stroke-dasharray:none"
       id="path4149-7"
       sodipodi:cx="192.33141"
       sodipodi:cy="460.74368"
       sodipodi:rx="26.589596"
       sodipodi:ry="85.529861"
       d="m 218.921,460.74368 a 26.589596,85.529861 0 1 1 -53.17919,0 26.589596,85.529861 0 1 1 53.17919,0 z"
       transform="matrix(0.58333326,0,0,0.18134712,313.24021,483.99068)" />
    <path
       style="fill:none;stroke:#000000;stroke-width:15;stroke-linecap:butt;stroke-linejoin:round;stroke-opacity:1;stroke-miterlimit:4;stroke-dasharray:none"
       d="m 311.09827,411.55293 c 232.2158,0 232.2158,-0.88632 232.2158,-0.88632 L 424.54721,565.77259 c 0,0 -231.32948,0 -232.2158,0 -0.88632,0 118.76686,-154.21966 118.76686,-154.21966 z"
       id="path4179"
       inkscape:connector-curvature="0" />
    <path
       style="fill:none;stroke:#000000;stroke-width:15;stroke-linecap:butt;stroke-linejoin:miter;stroke-opacity:1;stroke-miterlimit:4;stroke-dasharray:none"
       d="M 311.09827,410.66661 424.54721,565.77259 z"
       id="path4183"
       inkscape:connector-curvature="0" />
    <path
       style="fill:none;stroke:#000000;stroke-width:14.39367294;stroke-linecap:butt;stroke-linejoin:miter;stroke-miterlimit:4;stroke-opacity:1;stroke-dasharray:none"
       d="m 604.7733,562.53048 -82.20532,-223.95654 -50.46267,-0.88872 50.46267,0.88872 z"
       id="path4185"
       inkscape:connector-curvature="0" />
    <path
       style="fill:none;stroke:#000000;stroke-width:14.7;stroke-linecap:butt;stroke-linejoin:round;stroke-opacity:1;stroke-miterlimit:4;stroke-dasharray:none"
       d="m 310.21195,410.66661 -29.24856,-42.54335 -3.54528,-4.4316 32.79384,0 -60.26975,7.97688 0.88632,-15.95376 58.49711,4.4316 -0.88632,3.54528 -31.90752,0"
       id="path4187"
       inkscape:connector-curvature="0" />
    <path
       style="fill:none;stroke:#000000;stroke-width:5;stroke-linecap:butt;stroke-linejoin:miter;stroke-opacity:1;stroke-miterlimit:4;stroke-dasharray:none"
       d="m 424.54721,528.54715 0,77.99615"
       id="path4193"
       inkscape:connector-curvature="0" />
    <path
       style="fill:none;stroke:#000000;stroke-width:3;stroke-linecap:butt;stroke-linejoin:miter;stroke-opacity:1;stroke-miterlimit:4;stroke-dasharray:none"
       d="m 435.96702,528.47779 -22.45427,0 z"
       id="path4195-4"
       inkscape:connector-curvature="0" />
    <path
       sodipodi:type="arc"
       style="fill:#000000;fill-opacity:1;stroke-width:25.79999924;stroke-miterlimit:4;stroke-dasharray:none"
       id="path4149-9"
       sodipodi:cx="192.33141"
       sodipodi:cy="460.74368"
       sodipodi:rx="26.589596"
       sodipodi:ry="85.529861"
       d="m 218.921,460.74368 a 26.589596,85.529861 0 1 1 -53.17919,0 26.589596,85.529861 0 1 1 53.17919,0 z"
       transform="matrix(0.58333326,0,0,0.18134712,493.16315,477.78645)" />
    <path
       style="fill:none;stroke:#000000;stroke-width:3;stroke-linecap:butt;stroke-linejoin:miter;stroke-opacity:1;stroke-miterlimit:4;stroke-dasharray:none"
       d="m 436.66067,606.5433 -22.45427,0 z"
       id="path4195-4-8"
       inkscape:connector-curvature="0" />
  </g>
</svg>
